<svg width="21" height="28" viewBox="0 0 21 28" fill="none" xmlns="http://www.w3.org/2000/svg">
<path d="M4.57632 7.03333H5.07632V6.53333V5.6C5.07632 4.24772 5.61458 2.95062 6.573 1.99411C7.53145 1.03756 8.83161 0.5 10.1875 0.5C11.5434 0.5 12.8435 1.03756 13.802 1.99411C14.7604 2.95062 15.2987 4.24772 15.2987 5.6V6.53333V7.03333H15.7987L16.5749 7.03333L16.5754 7.03333C17.2343 7.03264 17.8679 7.28561 18.3444 7.73929C18.8208 8.19293 19.1033 8.81228 19.1335 9.46832L19.1336 9.46937L19.8723 24.8216C19.8723 24.8217 19.8723 24.8217 19.8723 24.8218C19.8881 25.167 19.8337 25.5119 19.7124 25.8356C19.5911 26.1594 19.4053 26.4554 19.1662 26.7057C18.9271 26.956 18.6396 27.1555 18.321 27.292C18.0027 27.4284 17.66 27.4992 17.3136 27.5C17.3133 27.5 17.313 27.5 17.3127 27.5H3.0623C3.06201 27.5 3.06172 27.5 3.06142 27.5C2.71497 27.4992 2.37228 27.4284 2.05399 27.292C1.73543 27.1555 1.44794 26.956 1.20882 26.7057C0.969701 26.4554 0.783899 26.1594 0.66256 25.8356C0.541284 25.512 0.486901 25.1672 0.50266 24.8221C0.502668 24.8219 0.502676 24.8218 0.502684 24.8216L1.24144 9.46937L1.24149 9.46832C1.27167 8.81228 1.55422 8.19293 2.03063 7.73929C2.50707 7.28561 3.14067 7.03264 3.79958 7.03333H3.80011H4.57632ZM13.9283 7.03333H14.4283V6.53333V5.6C14.4283 4.47693 13.9812 3.40006 13.1858 2.60623C12.3905 1.81244 11.3119 1.36667 10.1875 1.36667C9.06309 1.36667 7.98454 1.81244 7.18916 2.60623C6.39375 3.40006 5.94671 4.47693 5.94671 5.6V6.53333V7.03333H6.44671H13.9283ZM4.65512 9.6473C4.49729 9.88304 4.41299 10.1603 4.41299 10.444C4.41299 10.8245 4.56444 11.1891 4.8337 11.4579C5.10293 11.7266 5.46787 11.8773 5.84819 11.8773C6.13182 11.8773 6.40917 11.7934 6.64516 11.636C6.88116 11.4787 7.06525 11.2549 7.174 10.9928C7.28275 10.7308 7.31123 10.4424 7.25577 10.1642C7.20032 9.88595 7.06346 9.63052 6.86267 9.43013C6.66189 9.22975 6.4062 9.0934 6.12799 9.03817C5.84979 8.98294 5.56141 9.01128 5.29929 9.11964C5.03715 9.228 4.81294 9.41158 4.65512 9.6473ZM13.3337 9.6473C13.1759 9.88303 13.0916 10.1603 13.0916 10.444C13.0916 10.8245 13.2431 11.1891 13.5123 11.4579C13.7816 11.7266 14.1465 11.8773 14.5268 11.8773C14.8104 11.8773 15.0878 11.7934 15.3238 11.636C15.5598 11.4787 15.7439 11.2549 15.8526 10.9928C15.9614 10.7308 15.9898 10.4424 15.9344 10.1642C15.8789 9.88595 15.7421 9.63052 15.5413 9.43013C15.3405 9.22975 15.0848 9.0934 14.8066 9.03817C14.5284 8.98294 14.24 9.01128 13.9779 9.11964C13.7158 9.228 13.4916 9.41158 13.3337 9.6473Z" stroke="#1EA362"/>
<path d="M7.49902 19.2901L9.6531 21.5L9.63918 21.4857L14.499 16.5" stroke="#1EA362" stroke-width="1.5" stroke-linecap="round" stroke-linejoin="round"/>
</svg>
