<svg width="25" height="24" viewBox="0 0 25 24" fill="none" xmlns="http://www.w3.org/2000/svg">
<path d="M3.49658 13.0018L4.79228 11.7061C5.24462 11.2538 5.85812 10.9996 6.49783 10.9996C7.13753 10.9996 7.75103 11.2538 8.20337 11.7061L12.5003 16.003" stroke="#5B5C5F" stroke-width="1.5" stroke-linecap="round" stroke-linejoin="round"/>
<path d="M7.50244 21.0038L13.7989 14.7073C14.7408 13.7654 16.268 13.7654 17.21 14.7073L21.1508 18.6481" stroke="#5B5C5F" stroke-width="1.5" stroke-linecap="round" stroke-linejoin="round"/>
<path fill-rule="evenodd" clip-rule="evenodd" d="M16.779 9.39422H14.7329V7.34809C14.7327 7.13822 14.8162 6.93692 14.9647 6.7887L18.1297 3.62376C18.2779 3.47521 18.4792 3.39172 18.6891 3.39172C18.899 3.39172 19.1002 3.47521 19.2485 3.62376L20.5034 4.87865C20.6519 5.02692 20.7354 5.22818 20.7354 5.43806C20.7354 5.64794 20.6519 5.8492 20.5034 5.99746L17.3384 9.1624C17.19 9.31068 16.9888 9.39405 16.779 9.39422V9.39422Z" stroke="#5B5C5F" stroke-width="1.5" stroke-linecap="round" stroke-linejoin="round"/>
<path d="M21.5041 9.99913V17.002C21.5041 19.2121 19.7125 21.0037 17.5024 21.0037H7.49825C5.28819 21.0037 3.49658 19.2121 3.49658 17.002V6.99788C3.49658 4.78782 5.28819 2.99622 7.49825 2.99622H13.5007" stroke="#5B5C5F" stroke-width="1.5" stroke-linecap="round" stroke-linejoin="round"/>
</svg>
