<svg width="21" height="28" viewBox="0 0 21 28" fill="none" xmlns="http://www.w3.org/2000/svg">
<path d="M4.57632 7.03333H5.07632V6.53333V5.6C5.07632 4.24772 5.61458 2.95062 6.573 1.99411C7.53145 1.03756 8.83161 0.5 10.1875 0.5C11.5434 0.5 12.8435 1.03756 13.802 1.99411C14.7604 2.95062 15.2987 4.24772 15.2987 5.6V6.53333V7.03333H15.7987L16.5749 7.03333L16.5754 7.03333C17.2343 7.03264 17.8679 7.28561 18.3444 7.73929C18.8208 8.19293 19.1033 8.81228 19.1335 9.46832L19.1336 9.46937L19.8723 24.8216C19.8723 24.8217 19.8723 24.8217 19.8723 24.8218C19.8881 25.167 19.8337 25.5119 19.7124 25.8356C19.5911 26.1594 19.4053 26.4554 19.1662 26.7057C18.9271 26.956 18.6396 27.1555 18.321 27.292C18.0027 27.4284 17.66 27.4992 17.3136 27.5C17.3133 27.5 17.313 27.5 17.3127 27.5H3.0623C3.06201 27.5 3.06172 27.5 3.06142 27.5C2.71497 27.4992 2.37228 27.4284 2.05399 27.292C1.73543 27.1555 1.44794 26.956 1.20882 26.7057C0.969701 26.4554 0.783899 26.1594 0.66256 25.8356C0.541284 25.512 0.486901 25.1672 0.50266 24.8221C0.502668 24.8219 0.502676 24.8218 0.502684 24.8216L1.24144 9.46937L1.24149 9.46832C1.27167 8.81228 1.55422 8.19293 2.03063 7.73929C2.50707 7.28561 3.14067 7.03264 3.79958 7.03333H3.80011H4.57632ZM13.9283 7.03333H14.4283V6.53333V5.6C14.4283 4.47693 13.9812 3.40006 13.1858 2.60623C12.3905 1.81244 11.3119 1.36667 10.1875 1.36667C9.06309 1.36667 7.98454 1.81244 7.18916 2.60623C6.39375 3.40006 5.94671 4.47693 5.94671 5.6V6.53333V7.03333H6.44671H13.9283ZM4.65512 9.6473C4.49729 9.88304 4.41299 10.1603 4.41299 10.444C4.41299 10.8245 4.56444 11.1891 4.8337 11.4579C5.10293 11.7266 5.46787 11.8773 5.84819 11.8773C6.13182 11.8773 6.40917 11.7934 6.64516 11.636C6.88116 11.4787 7.06525 11.2549 7.174 10.9928C7.28275 10.7308 7.31123 10.4424 7.25577 10.1642C7.20032 9.88595 7.06346 9.63052 6.86267 9.43013C6.66189 9.22975 6.4062 9.0934 6.12799 9.03817C5.84979 8.98294 5.56141 9.01128 5.29929 9.11964C5.03715 9.228 4.81294 9.41158 4.65512 9.6473ZM13.3337 9.6473C13.1759 9.88303 13.0916 10.1603 13.0916 10.444C13.0916 10.8245 13.2431 11.1891 13.5123 11.4579C13.7816 11.7266 14.1465 11.8773 14.5268 11.8773C14.8104 11.8773 15.0878 11.7934 15.3238 11.636C15.5598 11.4787 15.7439 11.2549 15.8526 10.9928C15.9614 10.7308 15.9898 10.4424 15.9344 10.1642C15.8789 9.88595 15.7421 9.63052 15.5413 9.43013C15.3405 9.22975 15.0848 9.0934 14.8066 9.03817C14.5284 8.98294 14.24 9.01128 13.9779 9.11964C13.7158 9.228 13.4916 9.41158 13.3337 9.6473Z" stroke="#7B50E8"/>
<path fill-rule="evenodd" clip-rule="evenodd" d="M6.99867 23.5019H5.99826C5.722 23.5019 5.49805 23.2779 5.49805 23.0017V20.0004C5.49805 19.7242 5.722 19.5002 5.99826 19.5002H6.99867C7.27493 19.5002 7.49888 19.7242 7.49888 20.0004V23.0017C7.49888 23.2779 7.27493 23.5019 6.99867 23.5019Z" stroke="#7B50E8" stroke-width="0.8" stroke-linecap="round" stroke-linejoin="round"/>
<path d="M10.7501 14.9983V17.2993" stroke="#7B50E8" stroke-width="0.8" stroke-linecap="round" stroke-linejoin="round"/>
<path d="M14.0008 20.0004V18.0196C13.9994 17.6216 13.6765 17.2996 13.2785 17.2993H8.22035C7.82233 17.2996 7.49942 17.6216 7.49805 18.0196V20.5506" stroke="#7B50E8" stroke-width="0.8" stroke-linecap="round" stroke-linejoin="round"/>
<path d="M7.49805 20.0004V16.9847C7.49815 16.7895 7.53762 16.5964 7.6141 16.4169L8.00976 15.4915C8.1376 15.1923 8.43167 14.9982 8.75707 14.9983H12.7412C13.0676 14.9973 13.3631 15.1915 13.4915 15.4915L13.8872 16.4179C13.9629 16.5976 14.0016 16.7907 14.0008 16.9857V20.243" stroke="#7B50E8" stroke-width="0.8" stroke-linecap="round" stroke-linejoin="round"/>
<path d="M10.4993 21.501H11.6663C11.8827 21.501 12.0934 21.4308 12.2665 21.301L13.475 20.3946C13.7767 20.1684 14.1988 20.1985 14.4654 20.4651V20.4651C14.6076 20.6071 14.6875 20.7999 14.6875 21.0008C14.6875 21.2018 14.6076 21.3945 14.4654 21.5366L13.4285 22.5735C13.1492 22.8528 12.7934 23.0432 12.4061 23.1207L10.9405 23.4138C10.6499 23.4719 10.3501 23.4647 10.0626 23.3928L8.73706 23.0617C8.57859 23.0217 8.41579 23.0016 8.25236 23.0017H7.49805" stroke="#7B50E8" stroke-width="0.8" stroke-linecap="round" stroke-linejoin="round"/>
<path d="M10.4993 21.501H11.2421C11.6606 21.501 11.9999 21.1617 11.9999 20.7432V20.5932C11.9999 20.2456 11.7634 19.9426 11.4262 19.8583L10.2797 19.5717C10.0934 19.5247 9.90209 19.5007 9.70997 19.5002V19.5002C9.24616 19.5001 8.79271 19.6374 8.40693 19.8949L7.49805 20.5006" stroke="#7B50E8" stroke-width="0.8" stroke-linecap="round" stroke-linejoin="round"/>
</svg>
