<svg width="20" height="20" viewBox="0 0 20 20" fill="none" xmlns="http://www.w3.org/2000/svg">
<path fill-rule="evenodd" clip-rule="evenodd" d="M2.5 4.5C2.5 3.39543 3.39543 2.5 4.5 2.5H6.33333C7.4379 2.5 8.33333 3.39543 8.33333 4.5V6.33333C8.33333 7.4379 7.4379 8.33333 6.33333 8.33333H4.5C3.39543 8.33333 2.5 7.4379 2.5 6.33333V4.5Z" stroke="#97989B" stroke-width="1.5" stroke-linecap="round" stroke-linejoin="round"/>
<path fill-rule="evenodd" clip-rule="evenodd" d="M11.6665 4.5C11.6665 3.39543 12.5619 2.5 13.6665 2.5H15.4998C16.6044 2.5 17.4998 3.39543 17.4998 4.5V6.33333C17.4998 7.4379 16.6044 8.33333 15.4998 8.33333H13.6665C12.5619 8.33333 11.6665 7.4379 11.6665 6.33333V4.5Z" stroke="#97989B" stroke-width="1.5" stroke-linecap="round" stroke-linejoin="round"/>
<path fill-rule="evenodd" clip-rule="evenodd" d="M2.5 13.6667C2.5 12.5621 3.39543 11.6667 4.5 11.6667H6.33333C7.4379 11.6667 8.33333 12.5621 8.33333 13.6667V15.5C8.33333 16.6046 7.4379 17.5 6.33333 17.5H4.5C3.39543 17.5 2.5 16.6046 2.5 15.5V13.6667Z" stroke="#97989B" stroke-width="1.5" stroke-linecap="round" stroke-linejoin="round"/>
<path fill-rule="evenodd" clip-rule="evenodd" d="M11.6665 13.6667C11.6665 12.5621 12.5619 11.6667 13.6665 11.6667H15.4998C16.6044 11.6667 17.4998 12.5621 17.4998 13.6667V15.5C17.4998 16.6046 16.6044 17.5 15.4998 17.5H13.6665C12.5619 17.5 11.6665 16.6046 11.6665 15.5V13.6667Z" stroke="#97989B" stroke-width="1.5" stroke-linecap="round" stroke-linejoin="round"/>
</svg>
