<svg width="4" height="16" viewBox="0 0 4 16" fill="none" xmlns="http://www.w3.org/2000/svg">
<path d="M1.99724 13.5023C1.72212 13.5023 1.49703 13.7274 1.50003 14.0025C1.50003 14.2776 1.72512 14.5027 2.00024 14.5027C2.27535 14.5027 2.50045 14.2776 2.50045 14.0025C2.50045 13.7274 2.27535 13.5023 1.99724 13.5023" stroke="#1C1D1F" stroke-width="1.5" stroke-linecap="round" stroke-linejoin="round"/>
<path d="M1.99724 7.49979C1.72212 7.49979 1.49703 7.72488 1.50003 7.99999C1.50003 8.27511 1.72512 8.5002 2.00024 8.5002C2.27535 8.5002 2.50045 8.27511 2.50045 7.99999C2.50045 7.72488 2.27535 7.49979 1.99724 7.49979" stroke="#1C1D1F" stroke-width="1.5" stroke-linecap="round" stroke-linejoin="round"/>
<path d="M1.99724 1.49728C1.72212 1.49728 1.49703 1.72238 1.50003 1.99749C1.50003 2.27261 1.72512 2.4977 2.00024 2.4977C2.27535 2.4977 2.50045 2.27261 2.50045 1.99749C2.50045 1.72238 2.27535 1.49728 1.99724 1.49728" stroke="#1C1D1F" stroke-width="1.5" stroke-linecap="round" stroke-linejoin="round"/>
</svg>
