<svg width="20" height="20" viewBox="0 0 20 20" fill="none" xmlns="http://www.w3.org/2000/svg">
<path d="M4.97437 5.52081L4.41854 3.02081H2.81104" stroke="#97989B" stroke-width="1.5" stroke-linecap="round" stroke-linejoin="round"/>
<path fill-rule="evenodd" clip-rule="evenodd" d="M6.44245 12.3625L4.97412 5.52081H15.5225C16.0533 5.52081 16.4483 6.00998 16.3375 6.52915L15.0858 12.3625C15.0033 12.7466 14.6641 13.0208 14.2708 13.0208H7.25662C6.86412 13.0208 6.52495 12.7466 6.44245 12.3625Z" stroke="#97989B" stroke-width="1.5" stroke-linecap="round" stroke-linejoin="round"/>
<path d="M14.5542 16.0417C14.3817 16.0417 14.2417 16.1817 14.2433 16.3542C14.2433 16.5267 14.3833 16.6667 14.5558 16.6667C14.7283 16.6667 14.8683 16.5267 14.8683 16.3542C14.8675 16.1817 14.7275 16.0417 14.5542 16.0417" stroke="#97989B" stroke-width="1.5" stroke-linecap="round" stroke-linejoin="round"/>
<path d="M7.37978 16.0417C7.20728 16.0417 7.06728 16.1817 7.06895 16.3542C7.06811 16.5267 7.20811 16.6667 7.38061 16.6667C7.55311 16.6667 7.69311 16.5267 7.69311 16.3542C7.69311 16.1817 7.55311 16.0417 7.37978 16.0417" stroke="#97989B" stroke-width="1.5" stroke-linecap="round" stroke-linejoin="round"/>
</svg>
