<svg width="20" height="20" viewBox="0 0 20 20" fill="none" xmlns="http://www.w3.org/2000/svg">
<path fill-rule="evenodd" clip-rule="evenodd" d="M17.5028 6.73949V15.8358C17.5028 16.7566 16.7563 17.5031 15.8355 17.5031H4.16394C3.24309 17.5031 2.49658 16.7566 2.49658 15.8358V6.73949C2.49627 6.5134 2.54193 6.2896 2.63081 6.08171L3.73127 3.50648C3.99439 2.89359 4.59743 2.49648 5.2644 2.49689H14.735C15.4026 2.49689 16.0058 2.89512 16.2682 3.50898L17.3686 6.08171C17.4574 6.28965 17.503 6.51341 17.5028 6.73949Z" stroke="#333" stroke-width="1.5" stroke-linecap="round" stroke-linejoin="round"/>
<path d="M2.49658 6.66531H17.4945" stroke="#333" stroke-width="1.5" stroke-linecap="round" stroke-linejoin="round"/>
<path d="M11.6669 2.49689L12.5006 6.66529V9.35391C12.48 9.7298 12.1597 10.0185 11.7837 10H8.2155C7.8395 10.0185 7.51918 9.7298 7.49854 9.35391V6.66529L8.33222 2.49689" stroke="#333" stroke-width="1.5" stroke-linecap="round" stroke-linejoin="round"/>
<path d="M4.99756 15.0021H6.66492" stroke="#333" stroke-width="1.5" stroke-linecap="round" stroke-linejoin="round"/>
</svg>
