<svg width="20" height="20" viewBox="0 0 20 20" fill="none" xmlns="http://www.w3.org/2000/svg">
<path fill-rule="evenodd" clip-rule="evenodd" d="M16.6695 9.36806C16.6695 13.0096 14.0375 16.4227 10.4335 17.4431C10.1517 17.5231 9.84828 17.5231 9.5665 17.4431C5.9625 16.4235 3.33057 13.0096 3.33057 9.36806V6.00999C3.33057 5.33304 3.7399 4.72279 4.36683 4.46685L8.42185 2.80782C9.43394 2.39349 10.5677 2.39349 11.579 2.80782L15.634 4.46685C16.2601 4.72279 16.6695 5.33304 16.6695 6.00999V9.36806Z" stroke="#97989B" stroke-width="1.5" stroke-linecap="round" stroke-linejoin="round"/>
<path d="M13.335 12.501C13.2383 12.2567 13.0874 12.0383 12.8948 11.8599V11.8599C12.5688 11.5581 12.1436 11.3897 11.6993 11.3897C10.9581 11.3897 9.04318 11.3897 8.30204 11.3897C7.85769 11.3897 7.43168 11.5581 7.10571 11.8599V11.8599C6.91313 12.0383 6.76307 12.2567 6.66553 12.501" stroke="#97989B" stroke-width="1.5" stroke-linecap="round" stroke-linejoin="round"/>
<path d="M9.9999 5.8316C11.0228 5.8316 11.8523 6.66112 11.8523 7.68404C11.8523 8.70697 11.0228 9.53648 9.9999 9.53648C8.97697 9.53648 8.14746 8.7078 8.14746 7.68404C8.14746 6.66028 8.97697 5.8316 9.9999 5.8316" stroke="#97989B" stroke-width="1.5" stroke-linecap="round" stroke-linejoin="round"/>
</svg>
